<svg width="24" height="24" viewBox="0 0 24 24" fill="none" xmlns="http://www.w3.org/2000/svg">
<g clip-path="url(#clip0_16_166)">
<path d="M11.3394 0H12.6778C12.855 0.0540791 13.2492 0.05779 13.4559 0.0845143C14.0048 0.152682 14.5486 0.257996 15.0833 0.399731C18.1843 1.22882 20.826 3.26182 22.4215 6.04719C23.1185 7.26565 23.5954 8.59741 23.8301 9.98139C23.8775 10.2544 23.9139 10.5292 23.9389 10.8051C23.9507 10.9228 23.9698 11.2662 24 11.3596V12.6175C23.9445 12.8139 23.9364 13.2486 23.9089 13.4754C23.8447 13.9826 23.7493 14.4852 23.6232 14.9805C22.8347 18.0458 20.8691 20.6763 18.1529 22.301C16.9028 23.0487 15.5273 23.5632 14.0934 23.8199C13.9437 23.8465 13.7471 23.877 13.6032 23.8998C13.4473 23.9245 12.8088 23.9576 12.7073 24H11.3268C11.246 23.9707 10.8812 23.9446 10.7733 23.9347C10.5237 23.9118 10.3131 23.8859 10.0646 23.8439C8.76707 23.6311 7.5132 23.207 6.35295 22.5884C3.44195 21.0363 1.29833 18.3543 0.426043 15.1727C0.288138 14.6681 0.183053 14.1552 0.111444 13.637C0.0890746 13.4718 0.0708666 13.3061 0.0568379 13.1399C0.0468414 13.0235 0.0370296 12.7949 0 12.6889V11.2885C0.0373433 11.2008 0.0698456 10.6944 0.085316 10.5605C0.111191 10.3505 0.142426 10.1412 0.178991 9.93286C0.401005 8.66366 0.825934 7.43849 1.43747 6.30438C2.99838 3.40084 5.68788 1.26977 8.87139 0.414008C9.4 0.271969 9.93748 0.165255 10.4803 0.0945758C10.6407 0.0735427 10.8016 0.0569303 10.9629 0.0447577C11.0622 0.0364798 11.2497 0.0305763 11.3394 0ZM4.50251 16.5187C5.41462 16.5342 6.35898 16.5227 7.27404 16.5227L8.44338 16.5226C8.9935 16.5227 9.5547 16.5342 10.0905 16.3918C10.8332 16.1944 11.6 15.7208 11.9633 15.0291C12.2077 14.4811 12.1925 14.127 12.1843 13.5545C12.1703 12.5829 11.5811 11.9597 10.7238 11.5779C10.6461 11.5443 10.5949 11.5288 10.5078 11.5111C10.636 11.4338 10.7656 11.3626 10.8878 11.2778C11.2978 10.9934 11.5844 10.5922 11.7006 10.1038C11.8351 9.53821 11.8112 8.90438 11.5004 8.39777C11.1654 7.85168 10.5652 7.5351 9.9576 7.39247C9.47793 7.27989 8.93474 7.31051 8.43853 7.31051L5.76123 7.31107L4.92866 7.31133C4.81473 7.31139 4.60928 7.31852 4.5019 7.30725L4.50048 12.8244C4.50052 14.0428 4.48365 15.3033 4.50251 16.5187ZM14.2505 7.90755C14.2399 8.21777 14.2508 8.52841 14.2464 8.83802L17.997 8.83834C18.0014 8.53175 18.0029 8.22512 18.0012 7.91851C17.1041 7.90618 16.188 7.91239 15.2903 7.9136L14.628 7.91572C14.5297 7.91638 14.3393 7.92619 14.2505 7.90755ZM15.9884 9.63795C12.7805 9.84216 11.6924 13.8521 13.9362 15.8865C14.5671 16.4585 15.4054 16.7116 16.2441 16.6908C17.1837 16.6675 18.0915 16.3826 18.7213 15.6499C19.0455 15.2727 19.1973 14.9173 19.3447 14.4507C19.2523 14.4568 19.174 14.4557 19.0811 14.4543L18.2466 14.4555C18.1155 14.4564 17.8903 14.4642 17.7674 14.4539C17.4674 14.9099 17.1627 15.1894 16.6056 15.3155C16.1842 15.4107 15.6773 15.3122 15.3173 15.0694C14.9808 14.8438 14.7503 14.4914 14.6783 14.0929C14.6489 13.9355 14.6447 13.8095 14.6443 13.6515C15.172 13.629 15.8039 13.6455 16.3396 13.6454H19.4796C19.4938 13.4141 19.5062 13.2369 19.4951 13.0032C19.4619 12.1627 19.1377 11.3597 18.5779 10.7319C18.0265 10.11 17.2078 9.69054 16.3754 9.64164C16.2465 9.63367 16.1174 9.63244 15.9884 9.63795Z" fill="#7C3E00"/>
<path d="M6.53162 12.4358C6.66429 12.4489 7.03403 12.4393 7.18691 12.4393L8.54532 12.4384C9.03666 12.4391 9.51005 12.5034 9.88304 12.8668C10.1142 13.092 10.1993 13.4192 10.19 13.7345C10.1794 14.0959 10.0836 14.3372 9.8256 14.5874C9.30588 15.0213 8.79429 14.9554 8.16449 14.9625C7.62027 14.9684 7.06908 14.9519 6.52588 14.9605C6.53648 14.7328 6.52557 14.4667 6.52841 14.2357C6.53575 13.639 6.51875 13.0322 6.53162 12.4358Z" fill="#7C3E00"/>
<path d="M6.53209 8.89707L6.59657 8.89622L7.88368 8.89404C8.49759 8.89364 9.46144 8.8037 9.75424 9.53259C9.91519 9.93326 9.83779 10.3906 9.52078 10.6981C9.09778 11.0705 8.55634 11.0084 8.03643 11.0145C7.5342 11.0203 7.02593 11.0036 6.52441 11.0167C6.53578 10.8198 6.52628 10.5895 6.52849 10.3901C6.53397 9.89542 6.51913 9.39088 6.53209 8.89707Z" fill="#7C3E00"/>
<path d="M16.0193 11.0319C16.5736 11.008 17.0256 11.2264 17.3373 11.6924C17.5126 11.9544 17.5555 12.1679 17.6207 12.4665C17.1784 12.478 16.7044 12.4697 16.2598 12.4696C15.7207 12.4699 15.1751 12.4644 14.6367 12.4699C14.6798 12.3167 14.7 12.1767 14.7585 12.0246C14.9774 11.4556 15.4042 11.0906 16.0193 11.0319Z" fill="#7C3E00"/>
</g>
<defs>
<clipPath id="clip0_16_166">
<rect width="24" height="24" fill="white"/>
</clipPath>
</defs>
</svg>
