<svg width="294" height="115" viewBox="0 0 294 115" fill="none" xmlns="http://www.w3.org/2000/svg">
<path d="M47.7254 17.779C49.2983 18.3909 49.9901 19.7125 50.0289 21.3819C50.0905 24.0223 49.7359 26.6907 49.7815 29.3379C49.82 31.5678 50.1648 33.7758 50.1818 36.0016C50.183 36.372 49.6356 38.0647 49.4918 38.5238C49.9745 40.0977 49.8641 40.1339 49.6115 41.8129C54.4093 40.6585 59.4353 37.4443 64.4332 36.573C66.7065 36.1767 68.467 35.8908 70.6729 35.0663C72.4731 35.4567 73.2183 36.0927 71.9018 37.6246C68.9391 41.0699 65.7613 44.2803 62.626 47.5636C60.9201 49.3498 59.3021 51.6069 57.4703 53.2393C59.8152 54.2571 60.9609 56.2431 62.9839 57.5086C63.885 58.0723 65.6784 58.5091 66.7699 59.081C70.0648 60.8076 73.2488 62.548 76.693 63.9699C78.0349 64.5207 76.8327 66.5946 75.7028 67.0696C71.8295 68.6971 67.6404 67.9628 63.5995 67.6299C61.4689 67.6497 59.4111 67.8108 57.2768 67.6898C56.4666 67.6439 54.12 66.6524 53.7668 67.2001C53.6698 67.9622 53.8623 69.6033 54.0615 70.3717C54.2556 71.1348 55.1237 71.9551 55.3686 72.6432C56.2326 75.0714 57.1806 77.5476 57.9278 80.008C58.6314 82.3241 58.6056 84.9127 59.2064 87.2531C59.4241 88.1009 60.7718 89.5508 60.9141 90.5749C60.9701 91.0289 61.0863 91.1377 60.8024 91.5977C60.0596 92.1243 58.6511 91.531 58.0788 90.9835C54.9104 87.9513 51.889 84.5242 48.6999 81.4994C47.6002 80.4564 42.2199 73.8012 41.3621 73.755C40.8586 74.1023 39.8298 77.4406 39.4409 78.3252C37.7611 82.4329 35.2936 86.0072 33.1984 89.8472C32.038 91.9737 32.6248 93.1782 30.6777 95.6866C30.1377 96.2348 29.1966 97.656 28.3267 97.0904C25.804 95.4504 27.3137 92.5593 27.3416 90.2481C27.3531 89.2923 26.8459 87.5215 26.5571 86.5819C27.4379 84.3942 26.5792 84.3092 27.9622 82.1854C27.8672 80.8168 27.8417 79.4507 27.7338 78.0925C27.6969 77.629 27.2514 77.2234 27.2717 76.9852C27.3303 76.2935 27.492 75.4703 27.5855 74.7728C27.6837 74.0422 27.6627 73.3875 27.6503 72.6602C26.4221 73.103 23.649 74.353 22.436 74.394C17.7454 74.5531 13.9735 77.3592 9.37092 77.9576C8.44518 78.0779 7.24839 77.9211 6.37114 78.045C4.09475 78.3665 3.75058 78.92 1.60291 77.9211C1.53207 77.4457 1.50744 76.7152 1.47519 76.2173C2.50783 74.7407 3.77089 73.6351 5.30499 72.7017C5.81572 72.3909 6.87121 71.7739 7.26845 71.3673C9.46969 69.114 11.8141 67.0297 13.99 64.747C14.6444 64.0637 15.9613 63.168 16.7588 62.4445C17.5826 61.6973 18.6455 60.5118 18.8194 59.3201C18.8795 58.909 18.0906 58.0153 17.7594 57.7744C16.2049 56.4404 13.905 55.5507 12.3112 54.381C9.95655 52.6531 7.45177 51.7303 5.06556 50.2481C3.28339 49.1198 1.58996 47.857 0 46.4708C2.62006 44.6958 7.46522 44.9572 10.4635 45.1759C11.1621 45.2269 12.1513 44.7852 12.896 44.7799C15.4885 44.7616 18.2821 45.1941 20.7439 45.9783C21.8347 45.577 22.4479 45.3356 23.4721 44.8001C22.4663 43.0159 22.9067 42.0719 22.2379 40.6351C21.7195 39.248 19.643 36.8522 19.2065 35.5901C18.5453 33.6781 19.0954 32.3127 17.8143 30.2685C17.3384 29.509 17.1684 25.0355 17.2042 24.02C17.4893 23.5971 19.1886 21.3261 19.817 22.1403C20.2919 22.7557 20.8488 23.8127 21.5564 24.2951C24.4436 26.2635 26.9869 28.3924 29.3629 30.9623C30.2415 31.9188 30.4881 33.5175 31.6568 34.452C32.6523 35.2481 33.4819 35.5821 34.667 36.0687C37.4056 33.8156 36.6895 33.2782 38.4199 30.5173C39.064 29.4898 40.77 27.276 41.5712 26.1447C43.0767 24.019 45.6308 19.028 47.7254 17.779Z" fill="#E52313"/>
<path d="M120.998 44.456C120.955 45.736 120.912 46.76 120.87 47.528C120.827 48.2533 120.763 48.8507 120.678 49.32C120.635 49.7893 120.528 50.216 120.358 50.6C120.23 50.9413 120.038 51.3893 119.782 51.944C118.886 53.9067 117.499 55.4213 115.622 56.488C113.744 57.5547 111.355 58.088 108.454 58.088C106.576 58.088 105.083 57.896 103.974 57.512C102.864 57.1707 101.691 56.744 100.454 56.232L97.7656 54.952C96.7842 54.4827 95.9949 53.992 95.3976 53.48C94.8429 52.9253 94.5656 52.3707 94.5656 51.816C94.5656 50.4507 95.2269 49.6827 96.5496 49.512C97.5736 49.8533 98.4269 50.152 99.1096 50.408C99.7922 50.6213 100.347 50.856 100.774 51.112C101.243 51.3253 101.627 51.56 101.926 51.816C102.267 52.072 102.587 52.3493 102.886 52.648C104.891 53.4587 107.046 53.864 109.35 53.864C109.691 53.864 110.118 53.8 110.63 53.672C111.184 53.544 111.739 53.3947 112.294 53.224C112.848 53.0107 113.36 52.776 113.83 52.52C114.299 52.2213 114.662 51.944 114.918 51.688C115.216 51.0907 115.451 50.3013 115.622 49.32C115.835 48.3387 115.942 47.208 115.942 45.928C115.942 44.776 115.6 43.7947 114.918 42.984C114.235 42.1733 113.382 41.4907 112.358 40.936C111.334 40.3813 110.246 39.912 109.094 39.528C107.984 39.1013 106.982 38.7173 106.086 38.376C104.678 37.8213 103.184 36.9893 101.606 35.88C99.8136 33.0213 98.9176 30.9093 98.9176 29.544C98.9176 26.5147 100.795 23.592 104.55 20.776C108.304 19.496 110.736 18.856 111.846 18.856C112.23 18.856 112.763 19.0053 113.446 19.304C114.171 19.6027 114.875 19.9867 115.558 20.456C116.283 20.8827 116.902 21.3733 117.414 21.928C117.926 22.4827 118.182 23.016 118.182 23.528C118.182 24.7227 117.456 25.32 116.006 25.32C115.92 25.32 115.643 25.192 115.174 24.936C114.747 24.6373 114.256 24.3387 113.702 24.04C113.147 23.6987 112.571 23.4 111.974 23.144C111.419 22.888 110.95 22.76 110.566 22.76C109.67 22.76 108.795 22.9733 107.942 23.4C107.131 23.8267 106.406 24.36 105.766 25C105.126 25.64 104.614 26.344 104.23 27.112C103.846 27.8373 103.654 28.52 103.654 29.16C103.654 30.2693 103.974 31.2933 104.614 32.232C105.254 33.1707 106 33.8747 106.854 34.344C107.024 34.4293 107.451 34.6 108.134 34.856C108.816 35.0693 109.627 35.368 110.566 35.752C111.547 36.136 112.571 36.6053 113.638 37.16C114.747 37.7147 115.792 38.3547 116.774 39.08C117.798 39.7627 118.672 40.5733 119.398 41.512C120.166 42.408 120.699 43.3893 120.998 44.456ZM153.746 50.6C154.343 50.984 154.642 51.4533 154.642 52.008C154.642 52.6053 154.343 53.1813 153.746 53.736C153.149 54.2907 152.573 54.568 152.018 54.568C150.695 54.0987 149.543 53.224 148.562 51.944C147.623 50.664 146.983 49.2773 146.642 47.784C146.343 48.424 145.981 49.2347 145.554 50.216C145.17 51.1547 144.658 52.0507 144.018 52.904C143.378 53.7573 142.589 54.504 141.65 55.144C140.711 55.7413 139.538 56.04 138.13 56.04C137.405 56.04 136.445 55.912 135.25 55.656C133.927 54.7173 132.882 53.9707 132.114 53.416C131.389 52.8187 130.834 52.264 130.45 51.752C130.066 51.24 129.831 50.664 129.746 50.024C129.661 49.384 129.618 48.5307 129.618 47.464C129.618 46.568 129.746 45.5867 130.002 44.52C130.301 43.4107 130.706 42.3013 131.218 41.192C131.73 40.0827 132.37 38.9947 133.138 37.928C133.906 36.8613 134.802 35.88 135.826 34.984C137.703 34.344 139.175 33.8747 140.242 33.576C141.309 33.2773 142.034 33.128 142.418 33.128C143.271 32.1467 144.167 31.656 145.106 31.656C145.618 31.656 146.066 31.9547 146.45 32.552C146.834 33.1493 147.175 33.9387 147.474 34.92C147.815 35.8587 148.071 36.904 148.242 38.056C148.455 39.208 148.626 40.3173 148.754 41.384C148.882 41.5973 148.989 41.8533 149.074 42.152C149.159 42.408 149.245 42.7493 149.33 43.176L149.714 44.968C149.97 46.2053 150.461 47.272 151.186 48.168C151.911 49.064 152.765 49.8747 153.746 50.6ZM144.722 42.152C144.637 41.768 144.487 41.128 144.274 40.232C144.061 39.336 143.783 38.184 143.442 36.776C142.93 36.904 142.375 36.968 141.778 36.968C141.181 36.9253 140.541 37.032 139.858 37.288C139.175 37.544 138.429 38.0133 137.618 38.696C136.85 39.3787 136.061 40.4453 135.25 41.896C134.226 43.7733 133.714 45.7573 133.714 47.848C133.97 48.4027 134.205 48.8933 134.418 49.32C134.631 49.704 134.887 50.0667 135.186 50.408C135.527 50.7067 135.933 51.0053 136.402 51.304C136.871 51.6027 137.469 51.9227 138.194 52.264C138.834 52.136 139.367 51.9867 139.794 51.816C140.263 51.6453 140.669 51.3893 141.01 51.048C141.351 50.664 141.671 50.1947 141.97 49.64C142.269 49.0853 142.631 48.36 143.058 47.464C144.167 44.9893 144.722 43.2187 144.722 42.152ZM180.487 38.952C181.511 40.9573 182.023 42.7707 182.023 44.392C181.98 44.9893 181.916 45.608 181.831 46.248C181.745 46.8453 181.553 47.4427 181.255 48.04L179.847 51.048L177.863 53.16C176.412 54.5253 175.047 55.4427 173.767 55.912C172.487 56.3387 171.42 56.552 170.567 56.552C169.457 56.552 168.241 56.1467 166.919 55.336C166.535 56.0187 165.916 56.36 165.063 56.36C164.423 56.36 163.761 56.168 163.079 55.784C163.121 55.1867 163.143 54.5253 163.143 53.8C163.185 53.032 163.207 52.2 163.207 51.304C163.164 51.2187 163.121 50.8987 163.079 50.344C163.036 49.7467 162.972 49.0427 162.887 48.232C162.844 47.4213 162.78 46.568 162.695 45.672C162.609 44.7333 162.524 43.88 162.439 43.112C162.353 42.3013 162.268 41.6187 162.183 41.064C162.097 40.4667 162.033 40.1253 161.991 40.04L161.095 32.424C160.881 30.5893 160.604 29.0107 160.263 27.688C159.921 26.3653 159.751 25.4053 159.751 24.808C159.751 23.2293 160.433 22.44 161.799 22.44C162.652 22.44 163.313 22.76 163.783 23.4C164.295 24.04 164.657 25.32 164.871 27.24C164.956 28.2213 165.063 29.0533 165.191 29.736C165.319 30.376 165.425 30.888 165.511 31.272V31.464C165.511 31.592 165.532 32.04 165.575 32.808C165.66 33.576 165.724 34.3867 165.767 35.24C165.852 36.0507 165.916 36.7973 165.959 37.48C166.044 38.12 166.087 38.3973 166.087 38.312C167.025 37.6293 167.836 37.096 168.519 36.712C169.244 36.2853 169.927 35.9867 170.567 35.816C171.249 35.6027 171.932 35.4747 172.615 35.432C173.297 35.3467 174.108 35.304 175.047 35.304L177.607 36.136C178.887 36.776 179.847 37.7147 180.487 38.952ZM177.415 46.632C177.671 45.352 177.799 44.4133 177.799 43.816C177.799 43.5173 177.713 43.112 177.543 42.6C177.372 42.0453 177.116 41.5333 176.775 41.064C176.433 40.552 176.007 40.1253 175.495 39.784C174.983 39.4 174.385 39.208 173.703 39.208C172.935 39.208 171.911 39.5493 170.631 40.232C169.393 40.872 168.156 41.5547 166.919 42.28C167.132 44.1573 167.324 46.8027 167.495 50.216C168.007 51.8373 168.86 52.648 170.055 52.648C170.78 52.648 171.847 52.3493 173.255 51.752L175.815 49.512C176.711 48.5733 177.244 47.6133 177.415 46.632ZM207.488 35.24C208 35.5813 208.256 36.1787 208.256 37.032C208.256 38.696 207.573 39.528 206.208 39.528C205.568 39.528 204.928 39.3787 204.288 39.08C203.648 38.7813 203.029 38.632 202.432 38.632C201.749 38.632 201.088 38.76 200.448 39.016C199.85 39.272 199.168 39.784 198.4 40.552L196.032 42.856V44.2C196.032 44.84 196.01 45.5653 195.968 46.376C195.968 47.144 195.946 47.976 195.904 48.872C195.946 50.4507 196.138 52.584 196.48 55.272C196.352 56.808 195.584 57.576 194.176 57.576C193.408 57.576 192.853 57.384 192.512 57C192.213 56.5733 192 56.0187 191.872 55.336C191.744 54.6533 191.68 53.8853 191.68 53.032C191.68 52.1787 191.637 51.304 191.552 50.408C191.594 50.1947 191.616 49.9387 191.616 49.64C191.616 49.3413 191.616 49.0213 191.616 48.68V47.656L191.232 42.984C191.189 42.7707 191.168 42.5787 191.168 42.408C191.168 42.2373 191.168 42.0667 191.168 41.896C191.168 41.5547 191.21 41.1707 191.296 40.744C190.869 39.208 190.656 38.0773 190.656 37.352C190.656 36.7547 190.826 36.328 191.168 36.072C191.509 35.7733 192.128 35.624 193.024 35.624C193.621 35.624 194.09 35.8373 194.432 36.264C194.773 36.648 195.2 37.1387 195.712 37.736L198.528 35.688C199.253 35.1333 199.914 34.7707 200.512 34.6C201.152 34.4293 201.77 34.344 202.368 34.344C203.264 34.344 204.202 34.4507 205.184 34.664L207.488 35.24ZM222.709 27.816C222.709 28.5413 222.581 29.1387 222.325 29.608C222.112 30.0347 221.813 30.3547 221.429 30.568C221.045 30.7813 220.618 30.9307 220.149 31.016C219.722 31.0587 219.296 31.08 218.869 31.08C218.272 30.6533 217.76 30.184 217.333 29.672C216.949 29.1173 216.757 28.584 216.757 28.072C216.757 27.688 216.928 27.2613 217.269 26.792C217.61 26.28 217.909 25.7893 218.165 25.32L221.109 25.576C222.176 25.832 222.709 26.5787 222.709 27.816ZM220.533 37.096V37.352C220.533 37.736 220.469 38.376 220.341 39.272C220.256 40.1253 220.106 41.256 219.893 42.664C219.936 42.8773 219.957 43.176 219.957 43.56C219.957 43.816 219.872 44.392 219.701 45.288C219.53 46.184 219.445 46.952 219.445 47.592C219.445 47.72 219.445 47.848 219.445 47.976C219.488 48.104 219.509 48.2107 219.509 48.296C219.381 48.8933 219.317 49.7467 219.317 50.856C219.317 51.3253 219.317 51.8373 219.317 52.392C219.36 52.904 219.402 53.4587 219.445 54.056C219.104 55.2933 218.442 55.912 217.461 55.912C216.608 55.912 216.01 55.464 215.669 54.568C215.37 53.6293 215.221 52.4133 215.221 50.92C215.221 49.4267 215.264 48.0613 215.349 46.824C215.477 45.5867 215.626 44.4347 215.797 43.368C215.968 42.2587 216.138 41.2133 216.309 40.232C216.522 39.208 216.714 38.2053 216.885 37.224C217.312 36.584 217.909 36.264 218.677 36.264C219.488 36.264 220.106 36.5413 220.533 37.096ZM253.064 50.216V50.728C253.064 50.9413 253.064 51.368 253.064 52.008C253.107 52.6053 253.064 53.224 252.936 53.864C252.808 54.504 252.573 55.08 252.232 55.592C251.933 56.104 251.443 56.36 250.76 56.36C249.523 56.36 248.776 55.8693 248.52 54.888C248.563 54.5467 248.584 54.184 248.584 53.8C248.627 53.3733 248.648 52.9253 248.648 52.456C248.648 51.6453 248.605 50.728 248.52 49.704C248.477 48.68 248.413 47.5493 248.328 46.312L247.816 43.24C247.645 42.216 247.368 41.4267 246.984 40.872C246.6 40.2747 246.173 39.848 245.704 39.592C245.235 39.2933 244.744 39.1227 244.232 39.08C243.763 38.9947 243.357 38.952 243.016 38.952C241.736 38.952 240.648 39.336 239.752 40.104C238.856 40.8293 238.109 42.28 237.512 44.456C237.469 45.1813 237.405 45.9707 237.32 46.824C237.277 47.6773 237.171 48.616 237 49.64C237.085 51.176 237.213 53.1387 237.384 55.528C237.384 56.8507 236.637 57.512 235.144 57.512C234.547 57.512 234.077 57.3413 233.736 57C233.437 56.6587 233.203 56.232 233.032 55.72C232.904 55.1653 232.819 54.5893 232.776 53.992C232.733 53.3947 232.712 52.84 232.712 52.328C232.712 51.8587 232.733 51.3893 232.776 50.92C232.819 50.4507 232.883 49.96 232.968 49.448L233.544 42.856C233.587 42.3867 233.651 41.8747 233.736 41.32C233.864 40.7653 234.013 40.1467 234.184 39.464C234.056 38.5253 233.672 37.416 233.032 36.136V35.88C233.032 35.4107 233.245 34.9627 233.672 34.536C234.141 34.1093 234.675 33.896 235.272 33.896C235.869 33.896 236.36 34.1093 236.744 34.536C237.128 34.92 237.619 35.5813 238.216 36.52C238.557 36.2213 239.112 35.944 239.88 35.688C240.691 35.3893 241.608 35.24 242.632 35.24C244.936 35.24 246.92 35.7307 248.584 36.712C250.248 37.6933 251.315 39.4427 251.784 41.96C251.912 42.9413 252.019 43.752 252.104 44.392C252.189 44.9893 252.275 45.5653 252.36 46.12C252.488 46.632 252.595 47.208 252.68 47.848C252.808 48.4453 252.936 49.2347 253.064 50.216ZM285.809 50.6C286.406 50.984 286.705 51.4533 286.705 52.008C286.705 52.6053 286.406 53.1813 285.809 53.736C285.211 54.2907 284.635 54.568 284.081 54.568C282.758 54.0987 281.606 53.224 280.625 51.944C279.686 50.664 279.046 49.2773 278.705 47.784C278.406 48.424 278.043 49.2347 277.617 50.216C277.233 51.1547 276.721 52.0507 276.081 52.904C275.441 53.7573 274.651 54.504 273.713 55.144C272.774 55.7413 271.601 56.04 270.193 56.04C269.467 56.04 268.507 55.912 267.313 55.656C265.99 54.7173 264.945 53.9707 264.177 53.416C263.451 52.8187 262.897 52.264 262.513 51.752C262.129 51.24 261.894 50.664 261.809 50.024C261.723 49.384 261.681 48.5307 261.681 47.464C261.681 46.568 261.809 45.5867 262.065 44.52C262.363 43.4107 262.769 42.3013 263.281 41.192C263.793 40.0827 264.433 38.9947 265.201 37.928C265.969 36.8613 266.865 35.88 267.889 34.984C269.766 34.344 271.238 33.8747 272.305 33.576C273.371 33.2773 274.097 33.128 274.481 33.128C275.334 32.1467 276.23 31.656 277.169 31.656C277.681 31.656 278.129 31.9547 278.513 32.552C278.897 33.1493 279.238 33.9387 279.537 34.92C279.878 35.8587 280.134 36.904 280.305 38.056C280.518 39.208 280.689 40.3173 280.817 41.384C280.945 41.5973 281.051 41.8533 281.137 42.152C281.222 42.408 281.307 42.7493 281.393 43.176L281.777 44.968C282.033 46.2053 282.523 47.272 283.249 48.168C283.974 49.064 284.827 49.8747 285.809 50.6ZM276.785 42.152C276.699 41.768 276.55 41.128 276.337 40.232C276.123 39.336 275.846 38.184 275.505 36.776C274.993 36.904 274.438 36.968 273.841 36.968C273.243 36.9253 272.603 37.032 271.921 37.288C271.238 37.544 270.491 38.0133 269.681 38.696C268.913 39.3787 268.123 40.4453 267.313 41.896C266.289 43.7733 265.777 45.7573 265.777 47.848C266.033 48.4027 266.267 48.8933 266.481 49.32C266.694 49.704 266.95 50.0667 267.249 50.408C267.59 50.7067 267.995 51.0053 268.465 51.304C268.934 51.6027 269.531 51.9227 270.257 52.264C270.897 52.136 271.43 51.9867 271.857 51.816C272.326 51.6453 272.731 51.3893 273.073 51.048C273.414 50.664 273.734 50.1947 274.033 49.64C274.331 49.0853 274.694 48.36 275.121 47.464C276.23 44.9893 276.785 43.2187 276.785 42.152Z" fill="#7C3E00"/>
<path d="M124.454 98.616C124.368 99.0853 124.07 99.6827 123.558 100.408C123.046 101.091 122.427 101.795 121.702 102.52C120.976 103.203 120.187 103.843 119.334 104.44C118.523 105.037 117.755 105.443 117.03 105.656C114.768 106.68 112.166 107.192 109.222 107.192C108.368 107.192 107.622 107.171 106.982 107.128C106.342 107.128 105.702 107.021 105.062 106.808C104.464 106.595 103.846 106.253 103.206 105.784C102.566 105.315 101.84 104.632 101.03 103.736C100.134 102.797 99.4296 101.88 98.9176 100.984C98.4056 100.045 98.0002 99.1707 97.7016 98.36C97.4456 97.5067 97.2749 96.696 97.1896 95.928C97.1469 95.16 97.1256 94.456 97.1256 93.816C97.1256 92.3653 97.3176 90.6373 97.7016 88.632C98.0856 86.6267 99.0242 84.216 100.518 81.4C101.712 79.1813 102.331 78.0293 102.374 77.944L106.278 75.512C107.643 74.6587 108.944 73.9973 110.182 73.528C111.462 73.016 112.848 72.76 114.342 72.76C115.11 72.76 115.963 72.8027 116.902 72.888C117.84 72.9733 118.864 73.1013 119.974 73.272C121.083 73.4853 121.638 74.2107 121.638 75.448C121.638 76.6 120.934 77.2613 119.526 77.432C119.44 77.432 119.142 77.4107 118.63 77.368C118.118 77.3253 117.542 77.2827 116.902 77.24C116.304 77.1547 115.686 77.0907 115.046 77.048C114.448 77.0053 114.022 76.984 113.766 76.984C112.656 76.984 111.44 77.3467 110.118 78.072C108.795 78.7547 107.11 79.992 105.062 81.784C105.062 81.784 104.571 82.808 103.59 84.856C103.12 85.8373 102.779 86.648 102.566 87.288C102.352 87.8853 102.246 88.3547 102.246 88.696C101.819 89.5067 101.606 90.7653 101.606 92.472C101.606 96.0133 102.246 98.6373 103.526 100.344C104.848 102.051 106.726 102.904 109.158 102.904C110.822 102.904 112.998 102.52 115.686 101.752C117.563 100.6 119.163 98.9147 120.486 96.696C120.998 96.184 121.552 95.928 122.15 95.928C122.747 95.928 123.28 96.184 123.75 96.696C124.219 97.1653 124.454 97.6987 124.454 98.296V98.616ZM155.934 100.6C156.531 100.984 156.83 101.453 156.83 102.008C156.83 102.605 156.531 103.181 155.934 103.736C155.336 104.291 154.76 104.568 154.206 104.568C152.883 104.099 151.731 103.224 150.75 101.944C149.811 100.664 149.171 99.2773 148.83 97.784C148.531 98.424 148.168 99.2347 147.742 100.216C147.358 101.155 146.846 102.051 146.206 102.904C145.566 103.757 144.776 104.504 143.838 105.144C142.899 105.741 141.726 106.04 140.318 106.04C139.592 106.04 138.632 105.912 137.438 105.656C136.115 104.717 135.07 103.971 134.302 103.416C133.576 102.819 133.022 102.264 132.638 101.752C132.254 101.24 132.019 100.664 131.934 100.024C131.848 99.384 131.806 98.5307 131.806 97.464C131.806 96.568 131.934 95.5867 132.19 94.52C132.488 93.4107 132.894 92.3013 133.406 91.192C133.918 90.0827 134.558 88.9947 135.326 87.928C136.094 86.8613 136.99 85.88 138.014 84.984C139.891 84.344 141.363 83.8747 142.43 83.576C143.496 83.2773 144.222 83.128 144.606 83.128C145.459 82.1467 146.355 81.656 147.294 81.656C147.806 81.656 148.254 81.9547 148.638 82.552C149.022 83.1493 149.363 83.9387 149.662 84.92C150.003 85.8587 150.259 86.904 150.43 88.056C150.643 89.208 150.814 90.3173 150.942 91.384C151.07 91.5973 151.176 91.8533 151.262 92.152C151.347 92.408 151.432 92.7493 151.518 93.176L151.902 94.968C152.158 96.2053 152.648 97.272 153.374 98.168C154.099 99.064 154.952 99.8747 155.934 100.6ZM146.91 92.152C146.824 91.768 146.675 91.128 146.462 90.232C146.248 89.336 145.971 88.184 145.63 86.776C145.118 86.904 144.563 86.968 143.966 86.968C143.368 86.9253 142.728 87.032 142.046 87.288C141.363 87.544 140.616 88.0133 139.806 88.696C139.038 89.3787 138.248 90.4453 137.438 91.896C136.414 93.7733 135.902 95.7573 135.902 97.848C136.158 98.4027 136.392 98.8933 136.606 99.32C136.819 99.704 137.075 100.067 137.374 100.408C137.715 100.707 138.12 101.005 138.59 101.304C139.059 101.603 139.656 101.923 140.382 102.264C141.022 102.136 141.555 101.987 141.982 101.816C142.451 101.645 142.856 101.389 143.198 101.048C143.539 100.664 143.859 100.195 144.158 99.64C144.456 99.0853 144.819 98.36 145.246 97.464C146.355 94.9893 146.91 93.2187 146.91 92.152ZM180.05 85.24C180.562 85.5813 180.818 86.1787 180.818 87.032C180.818 88.696 180.135 89.528 178.77 89.528C178.13 89.528 177.49 89.3787 176.85 89.08C176.21 88.7813 175.591 88.632 174.994 88.632C174.311 88.632 173.65 88.76 173.01 89.016C172.413 89.272 171.73 89.784 170.962 90.552L168.594 92.856V94.2C168.594 94.84 168.573 95.5653 168.53 96.376C168.53 97.144 168.509 97.976 168.466 98.872C168.509 100.451 168.701 102.584 169.042 105.272C168.914 106.808 168.146 107.576 166.738 107.576C165.97 107.576 165.415 107.384 165.074 107C164.775 106.573 164.562 106.019 164.434 105.336C164.306 104.653 164.242 103.885 164.242 103.032C164.242 102.179 164.199 101.304 164.114 100.408C164.157 100.195 164.178 99.9387 164.178 99.64C164.178 99.3413 164.178 99.0213 164.178 98.68V97.656L163.794 92.984C163.751 92.7707 163.73 92.5787 163.73 92.408C163.73 92.2373 163.73 92.0667 163.73 91.896C163.73 91.5547 163.773 91.1707 163.858 90.744C163.431 89.208 163.218 88.0773 163.218 87.352C163.218 86.7547 163.389 86.328 163.73 86.072C164.071 85.7733 164.69 85.624 165.586 85.624C166.183 85.624 166.653 85.8373 166.994 86.264C167.335 86.648 167.762 87.1387 168.274 87.736L171.09 85.688C171.815 85.1333 172.477 84.7707 173.074 84.6C173.714 84.4293 174.333 84.344 174.93 84.344C175.826 84.344 176.765 84.4507 177.746 84.664L180.05 85.24ZM207.944 75.064C207.858 75.2773 207.794 75.6187 207.752 76.088C207.709 76.5573 207.688 77.1547 207.688 77.88C207.688 79.7147 207.709 81.1867 207.752 82.296C207.794 83.4053 207.816 84.088 207.816 84.344L207.624 85.432C207.752 85.7733 207.816 86.1787 207.816 86.648C207.816 86.776 207.794 87.032 207.752 87.416C207.709 87.7573 207.666 88.1627 207.624 88.632C207.581 89.0587 207.538 89.5067 207.496 89.976C207.453 90.4453 207.432 90.8293 207.432 91.128C207.432 91.2133 207.432 91.2987 207.432 91.384C207.474 91.4693 207.496 91.5547 207.496 91.64C207.282 92.6213 207.048 94.328 206.792 96.76C206.536 99.192 206.258 101.944 205.96 105.016C205.618 106.04 204.829 106.552 203.592 106.552C202.824 106.552 202.354 106.445 202.184 106.232C202.013 105.976 201.8 105.549 201.544 104.952C200.221 105.805 198.216 106.232 195.528 106.232C194.077 106.232 192.776 105.976 191.624 105.464C190.472 104.952 189.469 104.269 188.616 103.416C187.805 102.563 187.165 101.56 186.696 100.408C186.269 99.2133 186.056 97.9333 186.056 96.568C186.056 95.7573 186.141 94.968 186.312 94.2C186.525 93.3893 186.781 92.664 187.08 92.024C187.378 91.3413 187.698 90.7227 188.04 90.168C188.424 89.6133 188.786 89.1653 189.128 88.824C189.981 87.928 191.218 87.096 192.84 86.328C194.504 85.56 196.253 85.176 198.088 85.176C199.794 85.176 201.48 85.5813 203.144 86.392V85.368C203.144 84.472 203.165 83.5333 203.208 82.552C203.293 81.5707 203.378 80.504 203.464 79.352L203.208 75C203.208 74.7013 203.186 74.424 203.144 74.168C203.144 73.912 203.144 73.656 203.144 73.4C203.144 72.2907 203.272 71.4587 203.528 70.904C203.826 70.3067 204.424 70.008 205.32 70.008C205.874 70.008 206.301 70.0933 206.6 70.264C206.941 70.4347 207.176 70.7333 207.304 71.16C207.474 71.544 207.581 72.056 207.624 72.696C207.709 73.336 207.816 74.1253 207.944 75.064ZM202.76 90.808C201.693 89.784 200.072 89.272 197.896 89.272C196.872 89.272 195.997 89.3573 195.272 89.528C194.589 89.6987 193.992 89.9973 193.48 90.424C192.968 90.808 192.52 91.32 192.136 91.96C191.794 92.5573 191.432 93.304 191.048 94.2C190.749 94.968 190.6 95.8 190.6 96.696C190.6 98.4027 191.218 99.768 192.456 100.792C193.736 101.773 195.229 102.264 196.936 102.264C198.557 102.264 200.093 101.667 201.544 100.472C201.757 99.6613 201.992 98.68 202.248 97.528C202.546 96.376 202.696 95.2027 202.696 94.008C202.696 93.752 202.674 93.4747 202.632 93.176C202.632 92.8347 202.632 92.536 202.632 92.28C202.632 91.9387 202.632 91.6613 202.632 91.448C202.674 91.192 202.717 90.9787 202.76 90.808ZM233.836 105.528C233.025 106.083 230.87 106.723 227.372 107.448L224.684 106.936C224.342 106.808 223.724 106.488 222.828 105.976C221.974 105.464 221.078 104.717 220.14 103.736C219.244 102.755 218.433 101.517 217.708 100.024C217.025 98.5307 216.684 96.76 216.684 94.712C216.684 93.048 217.153 91.576 218.092 90.296C219.03 88.9733 220.46 87.5653 222.38 86.072C223.404 85.816 224.406 85.688 225.388 85.688C228.246 85.688 230.87 86.648 233.26 88.568C235.308 91.384 236.332 94.4773 236.332 97.848C236.332 100.493 235.5 103.053 233.836 105.528ZM228.012 89.912C227.372 89.6133 226.689 89.464 225.964 89.464C225.452 89.464 224.897 89.592 224.3 89.848C223.745 90.104 223.212 90.488 222.7 91C222.23 91.512 221.846 92.1733 221.548 92.984C221.249 93.752 221.1 94.6693 221.1 95.736C221.1 96.5893 221.206 97.4427 221.42 98.296C221.676 99.1493 222.038 99.9387 222.508 100.664C223.02 101.389 223.66 101.987 224.428 102.456C225.196 102.883 226.113 103.096 227.18 103.096C228.161 103.096 229.27 102.84 230.508 102.328C231.574 101.005 232.108 99.4267 232.108 97.592C232.108 93.5387 230.742 90.9787 228.012 89.912ZM261.412 100.024C261.284 101.261 260.836 102.435 260.068 103.544L257.764 106.808C257.38 107.149 256.782 107.427 255.972 107.64C255.161 107.896 254.329 108.088 253.476 108.216C252.665 108.387 251.918 108.515 251.236 108.6C250.596 108.685 250.254 108.728 250.212 108.728C249.785 108.728 249.23 108.643 248.548 108.472C247.908 108.344 247.268 108.195 246.628 108.024C245.988 107.853 245.433 107.683 244.964 107.512C244.494 107.384 244.238 107.32 244.196 107.32H244.132C243.662 107.277 243.15 107.171 242.596 107C242.084 106.829 241.572 106.616 241.06 106.36C240.59 106.104 240.206 105.827 239.908 105.528C239.566 105.187 239.396 104.824 239.396 104.44C239.396 103.971 239.63 103.501 240.1 103.032C240.569 102.52 241.038 102.264 241.508 102.264C245.817 103.971 249.252 104.824 251.812 104.824C252.75 104.824 253.54 104.632 254.18 104.248C254.862 103.864 255.374 103.459 255.716 103.032L257.06 100.6C257.06 100.045 256.889 99.4907 256.548 98.936C256.249 98.3813 255.822 97.8907 255.268 97.464C254.756 96.9947 254.158 96.5893 253.476 96.248C252.793 95.9067 252.089 95.672 251.364 95.544C250.553 95.416 249.721 95.1813 248.868 94.84C248.057 94.4987 247.289 94.0933 246.564 93.624C245.881 93.1547 245.305 92.6427 244.836 92.088C244.409 91.4907 244.174 90.8507 244.132 90.168C244.089 90.168 244.046 89.3573 244.004 87.736C244.089 87.096 244.174 86.584 244.26 86.2C244.345 85.816 244.537 85.4747 244.836 85.176C245.134 84.8347 245.582 84.472 246.18 84.088C246.82 83.704 247.716 83.1493 248.868 82.424C249.209 82.3813 249.828 82.3387 250.724 82.296C251.662 82.2107 252.921 82.0827 254.5 81.912C255.182 81.912 256.932 82.424 259.748 83.448C260.174 83.832 260.388 84.408 260.388 85.176C260.388 86.4987 259.94 87.16 259.044 87.16C259.001 87.16 258.958 87.16 258.916 87.16C258.873 87.1173 258.809 87.096 258.724 87.096L256.42 86.328C255.268 85.9867 254.286 85.816 253.476 85.816C252.281 85.816 251.321 85.88 250.596 86.008C249.913 86.136 249.401 86.3067 249.06 86.52C248.718 86.6907 248.484 86.8827 248.356 87.096C248.228 87.3093 248.142 87.5013 248.1 87.672C248.1 87.8 248.078 87.928 248.036 88.056C248.036 88.1413 248.036 88.248 248.036 88.376C248.036 90.04 248.718 91.064 250.084 91.448C256.825 92.8133 260.601 95.672 261.412 100.024ZM286.023 105.528C285.212 106.083 283.058 106.723 279.559 107.448L276.871 106.936C276.53 106.808 275.911 106.488 275.015 105.976C274.162 105.464 273.266 104.717 272.327 103.736C271.431 102.755 270.62 101.517 269.895 100.024C269.212 98.5307 268.871 96.76 268.871 94.712C268.871 93.048 269.34 91.576 270.279 90.296C271.218 88.9733 272.647 87.5653 274.567 86.072C275.591 85.816 276.594 85.688 277.575 85.688C280.434 85.688 283.058 86.648 285.447 88.568C287.495 91.384 288.519 94.4773 288.519 97.848C288.519 100.493 287.687 103.053 286.023 105.528ZM280.199 89.912C279.559 89.6133 278.876 89.464 278.151 89.464C277.639 89.464 277.084 89.592 276.487 89.848C275.932 90.104 275.399 90.488 274.887 91C274.418 91.512 274.034 92.1733 273.735 92.984C273.436 93.752 273.287 94.6693 273.287 95.736C273.287 96.5893 273.394 97.4427 273.607 98.296C273.863 99.1493 274.226 99.9387 274.695 100.664C275.207 101.389 275.847 101.987 276.615 102.456C277.383 102.883 278.3 103.096 279.367 103.096C280.348 103.096 281.458 102.84 282.695 102.328C283.762 101.005 284.295 99.4267 284.295 97.592C284.295 93.5387 282.93 90.9787 280.199 89.912Z" fill="#7C3E00"/>
</svg>
