<svg width="24" height="24" viewBox="0 0 24 24" fill="none" xmlns="http://www.w3.org/2000/svg">
<path d="M11.0436 0H12.9527C13.2064 0.0883043 13.6028 0.0920958 13.8805 0.137333C14.4045 0.227996 14.923 0.348389 15.4334 0.497927C18.5647 1.43969 21.1795 3.61254 22.6786 6.51858C23.2028 7.54195 23.5781 8.63505 23.7928 9.76465C23.8397 10.0224 23.9442 10.9549 24 11.113V12.9053L23.9932 12.9255C23.9194 13.1494 23.8767 13.7581 23.8303 14.0163C23.7452 14.4901 23.6466 14.9243 23.5109 15.3866C22.5859 18.5177 20.4281 21.1385 17.5329 22.6476C16.5282 23.1711 15.4748 23.5404 14.366 23.7778C14.0994 23.8348 13.1579 23.9264 12.9938 24H11.0512C10.9356 23.9536 9.93731 23.8247 9.70453 23.7813C8.8062 23.6067 7.93097 23.3289 7.0962 22.9538C3.95081 21.5461 1.56211 18.8545 0.538083 15.5642C0.384795 15.0691 0.276865 14.5957 0.17969 14.0877C0.125074 13.8022 0.101982 13.2219 0 12.9776V11.0038C0.0761325 10.8468 0.106492 10.3616 0.137682 10.1671C0.172085 9.95248 0.210604 9.74916 0.255544 9.53463C0.470745 8.50207 0.822284 7.5027 1.30092 6.5628C2.7897 3.61598 5.43218 1.41713 8.60048 0.488691C9.09802 0.34335 9.60382 0.228007 10.1152 0.143286C10.3611 0.104037 10.8225 0.0784575 11.0436 0ZM12.6666 11.093L12.6607 9.90082C12.1816 9.91582 11.6677 9.8997 11.1849 9.9023C10.9221 9.90373 10.381 9.92798 10.1566 9.8944C10.1253 10.7119 10.1546 11.6065 10.1471 12.4308C10.1294 14.3809 10.1697 16.3501 10.145 18.2991C10.9866 18.3285 11.9553 18.2737 12.7547 18.3171L12.7565 15.3385C12.7564 14.5629 12.6775 13.3395 13.0352 12.6662C13.2463 12.3227 13.4434 12.1283 13.8524 12.0337C14.6365 11.8439 15.447 12.103 15.6009 12.9955C15.7315 13.7526 15.7141 14.5726 15.7008 15.3445C15.684 16.3181 15.7342 17.3314 15.6969 18.3004C16.5228 18.3267 17.5333 18.2718 18.3137 18.3202C18.299 17.1485 18.329 15.9761 18.3136 14.8008C18.2948 13.3633 18.4762 11.5207 17.397 10.4035C16.8689 9.85687 15.742 9.59588 15.0131 9.68862C13.9957 9.78673 13.1595 10.14 12.6666 11.093ZM6.85552 5.72768C6.04038 5.91195 5.52755 6.72047 5.7083 7.5364C5.88902 8.35233 6.69532 8.86866 7.51202 8.69147C8.33374 8.51318 8.85396 7.70084 8.67211 6.87989C8.49026 6.05895 7.67566 5.54227 6.85552 5.72768ZM5.89566 18.3044C6.20051 18.3102 8.37989 18.3577 8.50978 18.2788L8.51414 12.87V10.9687C8.51414 10.6465 8.52497 10.2195 8.5069 9.90462C7.99158 9.91228 7.45823 9.90117 6.94146 9.90136C6.69073 9.90145 6.1182 9.91873 5.90681 9.88155C5.88277 10.5445 5.8957 11.2631 5.8957 11.9295L5.8968 16.1412C5.89706 16.8405 5.9152 17.6117 5.89566 18.3044Z" fill="#7C3E00"/>
</svg>
