<svg width="24" height="24" viewBox="0 0 24 24" fill="none" xmlns="http://www.w3.org/2000/svg">
<g clip-path="url(#clip0_16_127)">
<path d="M0.989746 4.26324L15.5016 4.26071L20.6397 4.26111C21.4233 4.26132 22.2244 4.27477 23.005 4.26484C22.8393 4.43917 22.5702 4.66604 22.3823 4.83156L21.2601 5.8097L17.8592 8.77316L14.0664 12.0771C13.4279 12.6338 12.6015 13.3141 12.0093 13.8839C11.7498 13.6816 11.4302 13.3892 11.1771 13.1681L9.79054 11.9589L5.41595 8.14613L2.4861 5.59304C2.1623 5.31376 1.84026 5.03244 1.52001 4.7491C1.3658 4.61305 1.12261 4.41052 0.989746 4.26324Z" fill="#7C3E00"/>
<path d="M8.75306 12.9564C8.87943 13.0029 9.40615 13.4821 9.5478 13.6057L11.1116 14.9715C11.3503 15.1797 11.7552 15.5506 12.0008 15.7259C12.2178 15.5742 12.6545 15.1563 12.8796 14.9683C13.6499 14.3248 14.4301 13.5645 15.2155 12.9485C15.5361 13.1863 16.0085 13.6214 16.3259 13.8984L18.2482 15.5717L21.1689 18.1117C21.7903 18.6516 22.4373 19.1998 23.0416 19.7557C22.7754 19.7178 21.8497 19.7549 21.5195 19.7561L18.0352 19.7575L5.66618 19.7571L2.37977 19.7573C2.04624 19.7566 1.24679 19.7132 0.95752 19.7607C1.42682 19.3073 2.03022 18.7927 2.52501 18.3647L4.45361 16.689L7.09575 14.3907C7.63385 13.9214 8.20422 13.405 8.75306 12.9564Z" fill="#7C3E00"/>
<path d="M24.0002 5.29068V18.7144L18.6564 14.0661L17.1366 12.7439C16.9363 12.5696 16.4821 12.1921 16.3291 12.0117C16.4554 11.8218 18.0154 10.4892 18.2427 10.2934C20.1649 8.63777 22.0659 6.92894 24.0002 5.29068Z" fill="#7C3E00"/>
<path d="M0 5.29956C0.959093 6.0865 1.96803 7.00403 2.9112 7.8261L7.69516 11.9958C7.46592 12.235 7.05232 12.5754 6.79048 12.8032L5.15032 14.2276L0 18.7095V5.29956Z" fill="#7C3E00"/>
</g>
<defs>
<clipPath id="clip0_16_127">
<rect width="24" height="24" fill="white"/>
</clipPath>
</defs>
</svg>
