<svg width="86" height="86" viewBox="0 0 86 86" fill="none" xmlns="http://www.w3.org/2000/svg">
<g clip-path="url(#clip0_21_362)">
<path d="M41.5846 0H44.3276L44.3923 0.0300488C44.7015 0.172069 45.0297 0.281932 45.3521 0.388683C48.2934 1.36271 50.3581 3.98005 50.5228 7.08769C50.5996 8.5355 50.5641 10.0042 50.5632 11.4559L50.5591 19.1368L50.5608 29.7418C50.561 31.5293 50.6117 33.6079 50.5479 35.3767C53.1591 35.4683 55.9034 35.4267 58.5235 35.4259L71.1988 35.4213C73.1553 35.4211 78.4255 35.2964 80.0729 35.6441C81.5747 35.954 82.9407 36.7291 83.977 37.8593C85.3004 39.288 85.3718 40.1736 86 41.8471V44.2337C85.7363 44.8564 85.57 45.4869 85.2954 46.1011C84.5051 47.8994 83.0375 49.3138 81.2114 50.038C80.3918 50.3614 79.5254 50.551 78.6456 50.5992C76.7075 50.7207 74.0243 50.6443 72.0352 50.644L60.1318 50.6406L53.6984 50.6491C52.9198 50.6522 51.2563 50.728 50.5819 50.6187C50.4472 57.3664 50.6286 64.1536 50.5573 70.9065C50.5297 73.5318 50.616 76.15 50.5258 78.7846C50.459 80.7368 49.5947 82.5685 48.193 83.9325C47.4023 84.7016 46.4628 85.1862 45.4397 85.5725C45.2264 85.6506 44.4829 85.9068 44.3439 86H41.6756C40.134 85.1963 39.3038 85.4096 37.6894 83.8403C36.6388 82.8219 35.92 81.51 35.6272 80.0764C35.3577 78.7469 35.4224 77.0676 35.4244 75.6871L35.432 70.6794C35.4351 64.0387 35.5001 57.2705 35.4105 50.6389C34.0791 50.7067 32.1844 50.6463 30.8075 50.6454L21.6548 50.6409L12.7096 50.646C11.0447 50.6473 9.33906 50.659 7.73032 50.6178C4.46518 50.5342 1.49152 48.6824 0.447381 45.5184C0.332758 45.1711 0.174623 44.6615 0 44.3469V41.5974C0.12444 41.4245 0.354359 40.8083 0.430642 40.5717C1.27305 37.9586 3.44425 36.051 6.16143 35.5773C7.48332 35.3468 9.03218 35.4174 10.4273 35.4191L16.402 35.425C22.5743 35.4244 29.2963 35.2832 35.4255 35.4446L35.4302 16.6772L35.4262 10.7566C35.4244 9.56305 35.4009 8.35491 35.4615 7.1644C35.5985 4.51608 37.1688 1.93791 39.6018 0.809488C40.2292 0.51852 40.9372 0.330092 41.528 0.029288L41.5846 0Z" fill="#B38150"/>
</g>
<defs>
<clipPath id="clip0_21_362">
<rect width="86" height="86" fill="white"/>
</clipPath>
</defs>
</svg>
