<svg width="78" height="80" viewBox="0 0 78 80" fill="none" xmlns="http://www.w3.org/2000/svg">
<path d="M47.7254 0C49.2983 0.611914 49.9901 1.93349 50.0289 3.60293C50.0905 6.2433 49.7359 8.91173 49.7815 11.559C49.82 13.7888 50.1648 15.9969 50.1818 18.2226C50.183 18.593 49.6356 20.2857 49.4918 20.7448C49.9745 22.3187 49.8641 22.3549 49.6115 24.0339C54.4093 22.8795 59.4353 19.6653 64.4332 18.794C66.7065 18.3977 68.467 18.1118 70.6729 17.2873C72.4731 17.6777 73.2183 18.3138 71.9018 19.8456C68.9391 23.2909 65.7613 26.5013 62.626 29.7846C60.9201 31.5708 59.3021 33.8279 57.4703 35.4603C59.8152 36.4781 60.9609 38.4641 62.9839 39.7296C63.885 40.2933 65.6784 40.7301 66.7699 41.302C70.0648 43.0286 73.2488 44.769 76.693 46.1909C78.0349 46.7417 76.8327 48.8156 75.7028 49.2906C71.8295 50.9181 67.6404 50.1838 63.5995 49.8509C61.4689 49.8707 59.4111 50.0318 57.2768 49.9109C56.4666 49.8649 54.12 48.8734 53.7668 49.4211C53.6698 50.1832 53.8623 51.8243 54.0615 52.5927C54.2556 53.3559 55.1237 54.1761 55.3686 54.8642C56.2326 57.2924 57.1806 59.7686 57.9278 62.229C58.6314 64.5451 58.6056 67.1337 59.2064 69.4741C59.4241 70.3219 60.7718 71.7718 60.9141 72.7959C60.9701 73.2499 61.0863 73.3587 60.8024 73.8187C60.0596 74.3453 58.6511 73.752 58.0788 73.2045C54.9104 70.1723 51.889 66.7452 48.6999 63.7204C47.6002 62.6774 42.2199 56.0223 41.3621 55.976C40.8586 56.3233 39.8298 59.6616 39.4409 60.5462C37.7611 64.6539 35.2936 68.2282 33.1984 72.0682C32.038 74.1947 32.6248 75.3992 30.6777 77.9076C30.1377 78.4558 29.1966 79.877 28.3267 79.3114C25.804 77.6714 27.3137 74.7803 27.3416 72.4692C27.3531 71.5133 26.8459 69.7425 26.5571 68.8029C27.4379 66.6152 26.5792 66.5302 27.9622 64.4064C27.8672 63.0378 27.8417 61.6717 27.7338 60.3135C27.6969 59.85 27.2514 59.4444 27.2717 59.2062C27.3303 58.5145 27.492 57.6913 27.5855 56.9938C27.6837 56.2632 27.6627 55.6085 27.6503 54.8812C26.4221 55.324 23.649 56.574 22.436 56.615C17.7454 56.7741 13.9735 59.5802 9.37092 60.1786C8.44518 60.2989 7.24839 60.1421 6.37114 60.266C4.09475 60.5875 3.75058 61.141 1.60291 60.1421C1.53207 59.6667 1.50744 58.9362 1.47519 58.4383C2.50783 56.9617 3.77089 55.8561 5.30499 54.9227C5.81572 54.6119 6.87121 53.9949 7.26845 53.5883C9.46969 51.335 11.8141 49.2507 13.99 46.968C14.6444 46.2847 15.9613 45.389 16.7588 44.6655C17.5826 43.9183 18.6455 42.7328 18.8194 41.5411C18.8795 41.13 18.0906 40.2363 17.7594 39.9954C16.2049 38.6614 13.905 37.7717 12.3112 36.602C9.95655 34.8741 7.45177 33.9513 5.06556 32.4692C3.28339 31.3408 1.58996 30.078 0 28.6918C2.62006 26.9169 7.46522 27.1783 10.4635 27.3969C11.1621 27.4479 12.1513 27.0062 12.896 27.0009C15.4885 26.9826 18.2821 27.4151 20.7439 28.1993C21.8347 27.798 22.4479 27.5566 23.4721 27.0211C22.4663 25.2369 22.9067 24.2929 22.2379 22.8561C21.7195 21.469 19.643 19.0732 19.2065 17.8111C18.5453 15.8991 19.0954 14.5337 17.8143 12.4895C17.3384 11.73 17.1684 7.25651 17.2042 6.24101C17.4893 5.81813 19.1886 3.54707 19.817 4.36135C20.2919 4.97669 20.8488 6.0337 21.5564 6.51612C24.4436 8.48453 26.9869 10.6134 29.3629 13.1833C30.2415 14.1398 30.4881 15.7385 31.6568 16.673C32.6523 17.4691 33.4819 17.8031 34.667 18.2898C37.4056 16.0366 36.6895 15.4992 38.4199 12.7384C39.064 11.7108 40.77 9.49698 41.5712 8.3657C43.0767 6.24 45.6308 1.24896 47.7254 0Z" fill="#E52313"/>
</svg>
