<svg width="16" height="16" viewBox="0 0 16 16" fill="none" xmlns="http://www.w3.org/2000/svg">
<path d="M6.25656 6.25109L7.76095 0C7.79877 0.197925 7.86713 0.445748 7.91556 0.646935L8.21385 1.88888L9.25767 6.2438C9.3933 6.28972 9.68674 6.3509 9.83931 6.38747L10.9713 6.65886L13.841 7.34758C14.3525 7.47032 14.9053 7.5919 15.4093 7.72768C15.3504 7.77518 15.3302 7.75269 15.2733 7.80675C15.0756 7.86198 14.858 7.91042 14.6574 7.95854L13.6812 8.19268L10.6758 8.91401L9.79767 9.12417C9.62705 9.16495 9.43095 9.20706 9.26361 9.25542C9.22134 9.37175 9.15525 9.68815 9.1222 9.82612L8.84205 10.9938L8.14744 13.8878C8.02166 14.4116 7.89611 14.9796 7.75634 15.4964C7.74236 15.4492 7.72752 15.3668 7.71556 15.3155L7.63009 14.9597L7.33583 13.7353L6.6208 10.7566C6.5017 10.2603 6.3856 9.74565 6.25965 9.25253C5.95133 9.16487 5.55756 9.08151 5.24031 9.00534L3.29324 8.53823L1.09552 8.01089C0.744524 7.92659 0.348264 7.81979 0 7.74768C0.748813 7.57628 1.49612 7.39842 2.24183 7.21405L6.25656 6.25109Z" fill="#E42312"/>
</svg>
