<svg width="33" height="33" viewBox="0 0 33 33" fill="none" xmlns="http://www.w3.org/2000/svg">
<path d="M8.12891 16.3346L10.4287 17.3434C10.9089 17.5541 11.4194 17.7855 11.9219 17.9879H11.9229C14.4234 18.9864 17.1774 19.1385 19.7646 18.4293L20.2793 18.276C20.6914 18.1442 21.1111 17.9777 21.5215 17.8033L22.707 17.2828L25.5986 16.0172C25.5986 16.0194 25.5996 16.0219 25.5996 16.024V22.6969L25.6006 23.6686C25.6009 24.3421 25.6075 24.6524 25.2979 24.9615C25.1424 25.1165 25.0172 25.1866 24.8955 25.2252C24.7615 25.2678 24.5983 25.2834 24.3398 25.2858L13.4141 25.2867H10.0137L8.99219 25.2877C8.73041 25.2881 8.51753 25.291 8.29395 25.2682C7.88591 25.2264 7.48357 24.8433 7.42578 24.444C7.38599 24.1691 7.40214 23.8217 7.40234 23.4508L7.40332 21.6656V16.0153L8.12891 16.3346Z" fill="#7C3E00" stroke="#7C3E00"/>
<path d="M6.14879 10.3175C6.85375 10.2896 7.7235 10.3117 8.44046 10.3119L12.674 10.312L22.8029 10.3118H25.431C25.8866 10.3118 26.3428 10.3082 26.7983 10.3168C27.0428 10.3215 27.2311 10.4475 27.2987 10.6884C27.3367 10.8489 27.3426 11.063 27.3318 11.2277C27.2938 11.8025 27.4205 12.6295 27.2124 13.1542C27.1179 13.3938 26.9625 13.6046 26.7616 13.7658C26.4927 13.9818 25.9909 14.1741 25.6593 14.3196L24.3839 14.8796C24.1129 14.9858 23.7781 15.1445 23.5072 15.2637L21.7043 16.0563C20.5377 16.5689 19.732 16.9334 18.4576 17.1676C16.6939 17.4887 14.8779 17.368 13.1722 16.816C12.4788 16.5886 11.871 16.3076 11.2049 16.0135L9.05195 15.0668L7.3779 14.3349C7.02769 14.1819 6.60517 14.0277 6.29665 13.8145C5.56386 13.3082 5.67169 12.4873 5.67253 11.7113C5.67287 11.4048 5.65515 11.0886 5.68128 10.7861C5.70655 10.4938 5.87899 10.364 6.14879 10.3175Z" fill="#7C3E00"/>
<path d="M14.2809 6.19402C14.3727 6.18943 14.4769 6.18775 14.569 6.18708L17.1574 6.18671C17.6809 6.18632 18.7112 6.15068 19.1664 6.26088C19.6271 6.37291 20.0481 6.60897 20.3841 6.94342C21.1001 7.65845 21.144 8.35317 21.1417 9.28397C20.8012 9.29077 20.4498 9.28536 20.1082 9.28648C20.123 8.72927 20.1264 8.22099 19.746 7.77285C19.4661 7.44322 19.1371 7.28112 18.7115 7.24071C18.619 7.22632 18.4667 7.22421 18.3697 7.22397L15.7603 7.22547C15.3483 7.22463 14.4095 7.19579 14.0529 7.27722C13.7797 7.34151 13.5302 7.48144 13.3328 7.68096C12.856 8.16104 12.8899 8.66719 12.8915 9.28383C12.5514 9.29083 12.1993 9.28547 11.8579 9.28652C11.8686 8.40788 11.8566 7.84402 12.4666 7.10301C12.9318 6.53786 13.5575 6.25553 14.2809 6.19402Z" fill="#7C3E00"/>
</svg>
