<svg width="24" height="24" viewBox="0 0 24 24" fill="none" xmlns="http://www.w3.org/2000/svg">
<g clip-path="url(#clip0_21_325)">
<path d="M11.6036 0.286331C18.0708 0.0681996 23.491 5.13253 23.7121 11.5996C23.933 18.0667 18.871 23.4892 12.404 23.713C5.93301 23.937 0.506404 18.8712 0.285289 12.4001C0.0641745 5.92898 5.13234 0.504599 11.6036 0.286331ZM5.78823 15.5769C5.68694 15.9121 5.54373 16.296 5.42707 16.6303L4.78295 18.4765C4.68262 18.7642 4.51476 19.2022 4.43583 19.4882L7.16142 18.629L8.02467 18.357C8.19153 18.3044 8.3871 18.2378 8.55427 18.1958C8.69838 18.2352 8.86887 18.3372 9.01209 18.4003C9.29435 18.5247 9.58258 18.6348 9.87576 18.7304C10.2536 18.8404 10.5386 18.9201 10.9312 18.9852C12.5789 19.2595 14.271 18.9741 15.7376 18.1745C17.4569 17.2435 18.7333 15.6641 19.283 13.7876C19.8144 11.9482 19.5962 9.97324 18.6759 8.29429C17.7419 6.60114 16.1747 5.34745 14.3177 4.80809C13.5697 4.59316 12.9849 4.52598 12.2081 4.51734C11.9633 4.52078 11.6724 4.5277 11.4283 4.55169C9.66228 4.71466 8.01293 5.50429 6.77857 6.77773C5.43163 8.16495 4.69584 10.0335 4.73533 11.9666C4.76127 13.0061 5.00908 14.0279 5.4622 14.9638C5.56673 15.1837 5.6739 15.3652 5.78823 15.5769Z" fill="#7C3E00"/>
<path d="M11.8806 5.6181C12.3211 5.60029 12.7623 5.62785 13.1971 5.70036C14.8608 5.98093 16.3441 6.91314 17.3185 8.29061C18.2543 9.59621 18.6327 11.2204 18.3702 12.8052C18.0855 14.4137 17.1747 15.8439 15.8373 16.7821C14.4791 17.7449 12.795 18.1307 11.1532 17.855C10.5641 17.7773 9.87911 17.5293 9.34663 17.2675C9.19735 17.194 8.88171 16.9908 8.75571 16.9476C8.58415 16.9898 8.37791 17.0592 8.20765 17.1124L7.33991 17.3825C7.1479 17.4426 6.95553 17.5015 6.76278 17.5593C6.62549 17.6001 6.47398 17.6393 6.34335 17.6946C6.38507 17.5888 6.42057 17.4684 6.45457 17.3589C6.65949 16.699 6.90287 16.0426 7.09994 15.3811C6.95598 15.1664 6.84027 15.0148 6.70566 14.7847C6.24753 14.0009 5.97529 13.1224 5.9099 12.2168C5.80261 10.5287 6.34023 8.94298 7.47447 7.68434C8.6413 6.38951 10.1597 5.7284 11.8806 5.6181ZM15.5882 14.7612C15.7048 14.5652 15.902 14.0093 15.8459 13.7838C15.8273 13.7089 15.7396 13.6571 15.6755 13.6212C15.416 13.4754 15.0853 13.3487 14.8118 13.2239C14.6087 13.1312 14.2626 12.9489 14.0587 12.8903C14.0038 12.8744 13.9408 12.8661 13.885 12.8825C13.6298 12.9579 13.1992 13.8575 12.9771 13.8628C12.8273 13.8663 12.4937 13.6895 12.3532 13.6201C11.5603 13.2329 10.8839 12.643 10.3925 11.9101C10.338 11.8274 10.1804 11.5908 10.1607 11.51C10.0756 11.161 10.9822 10.6881 10.8429 10.3509C10.6199 9.80256 10.3825 9.25807 10.1447 8.71595C10.1302 8.68274 10.0743 8.59009 10.0437 8.57879C9.85471 8.50912 9.56553 8.51434 9.36485 8.52538C9.11435 8.53172 8.98816 8.65661 8.82232 8.82771C7.65936 10.0277 8.41264 11.5592 9.26841 12.6615C9.54391 13.0188 9.84579 13.3549 10.1715 13.6671C10.9766 14.4288 11.8951 15.0121 12.9482 15.3674C13.3221 15.4936 13.6683 15.5906 14.0682 15.5829C14.6435 15.5716 15.2966 15.2776 15.5882 14.7612Z" fill="#7C3E00"/>
</g>
<defs>
<clipPath id="clip0_21_325">
<rect width="24" height="24" fill="white"/>
</clipPath>
</defs>
</svg>
